# Blender v3.1.2 OBJ File: 'axe.blend'
# www.blender.org
o Cube
v -0.010931 0.396271 0.022616
v -0.017109 -0.139438 0.024832
v -0.008866 0.375732 -0.026454
v -0.015952 -0.122550 -0.017245
v 0.016492 0.396271 0.020792
v 0.022910 -0.139438 0.022171
v 0.007948 0.375732 -0.027572
v 0.016191 -0.122550 -0.019383
v -0.011061 0.371075 0.027221
v -0.005077 0.206966 0.038737
v -0.004104 0.094796 0.033783
v -0.010441 -0.025351 0.024641
v -0.014699 -0.095881 0.022430
v 0.017741 -0.081608 -0.016917
v 0.014242 -0.014222 -0.007719
v 0.009698 0.115006 0.010641
v 0.012207 0.206966 0.014220
v 0.008681 0.362938 -0.012994
v -0.007663 0.362938 -0.011907
v -0.008482 0.206966 0.015596
v -0.005575 0.115006 0.011657
v -0.012475 -0.014222 -0.005942
v -0.017162 -0.081608 -0.014596
v 0.017231 0.371075 0.025339
v 0.013754 0.206966 0.037485
v 0.011170 0.094796 0.032767
v 0.016276 -0.025351 0.022864
v 0.020203 -0.095881 0.020108
v -0.001248 0.352726 0.027900
v -0.000635 0.225315 0.037110
v 0.009591 0.352726 0.027179
v 0.010204 0.225315 0.036389
v 0.002046 0.379596 0.077429
v 0.000442 0.251938 0.053302
v 0.012885 0.379596 0.076709
v 0.011281 0.251938 0.052581
v 0.003463 0.386611 0.098734
v 0.003303 0.264043 0.096326
v 0.014280 0.386611 0.097679
v 0.004954 0.406823 0.121149
v 0.006261 0.232981 0.140794
v 0.015821 0.406823 0.120846
v 0.006797 0.483091 0.148852
v 0.006700 0.209304 0.147401
v 0.017635 0.483091 0.148131
v 0.017539 0.209304 0.146680
v -0.010874 0.312772 0.031441
v 0.015884 0.307526 0.003671
v -0.012595 0.307526 0.005565
v 0.017605 0.312772 0.029547
v -0.001030 0.307461 0.031172
v 0.009809 0.307461 0.030451
v 0.002239 0.334243 0.080318
v 0.015174 0.334243 0.111128
v 0.005293 0.343067 0.126239
v 0.017229 0.343067 0.142020
v 0.007304 0.345062 0.156489
v 0.019241 0.345062 0.172270
v 0.010543 0.353017 0.205178
v 0.021381 0.353017 0.204457
v -0.010719 0.264402 0.034943
v -0.011910 0.261554 0.017036
v 0.017915 0.264402 0.033038
v -0.000849 0.269907 0.033886
v 0.010128 0.272343 0.035246
v 0.001960 0.296616 0.076126
v 0.013896 0.296616 0.091907
v 0.004383 0.306940 0.112564
v 0.016319 0.306940 0.128345
v 0.006827 0.293823 0.149314
v 0.018764 0.293823 0.165095
v 0.009619 0.287526 0.191293
v 0.020458 0.287526 0.190572
v 0.016724 0.261554 0.015132
v 0.009141 0.298749 -0.005255
v 0.008573 0.332812 -0.012987
v -0.006710 0.270490 0.002246
v -0.006256 0.236934 0.009870
v 0.010171 0.236934 0.008778
v -0.007554 0.332812 -0.011914
v 0.009612 0.270490 0.001161
v -0.007093 0.298749 -0.004175
v -0.002091 0.320851 -0.051554
v -0.000578 0.281978 -0.028806
v -0.003330 0.270895 -0.070173
v 0.014142 0.264043 0.095605
v 0.017099 0.232981 0.140074
v -0.001248 0.352726 0.027900
v -0.000635 0.225315 0.037110
v 0.009591 0.352726 0.027179
v 0.010204 0.225315 0.036389
v -0.001030 0.307461 0.031172
v 0.009809 0.307461 0.030451
v -0.000849 0.269907 0.033886
v 0.010128 0.272343 0.035246
v 0.009141 0.298749 -0.005255
v 0.008573 0.332812 -0.012987
v -0.006710 0.270490 0.002246
v -0.006256 0.236934 0.009870
v 0.010171 0.236934 0.008778
v -0.007554 0.332812 -0.011914
v 0.009612 0.270490 0.001161
v -0.007093 0.298749 -0.004175
v 0.022910 -0.139438 0.022171
v 0.022910 -0.139438 0.022171
v 0.016191 -0.122550 -0.019383
v 0.016191 -0.122550 -0.019383
v 0.016191 -0.122550 -0.019383
v -0.017109 -0.139438 0.024832
v -0.017109 -0.139438 0.024832
v -0.014699 -0.095881 0.022430
v -0.014699 -0.095881 0.022430
v -0.014699 -0.095881 0.022430
v -0.014699 -0.095881 0.022430
v 0.008681 0.362938 -0.012994
v 0.008681 0.362938 -0.012994
v 0.008681 0.362938 -0.012994
v 0.008681 0.362938 -0.012994
v 0.008681 0.362938 -0.012994
v 0.007948 0.375732 -0.027572
v 0.007948 0.375732 -0.027572
v -0.017162 -0.081608 -0.014596
v -0.017162 -0.081608 -0.014596
v -0.015952 -0.122550 -0.017245
v -0.015952 -0.122550 -0.017245
v -0.015952 -0.122550 -0.017245
v 0.020203 -0.095881 0.020108
v 0.020203 -0.095881 0.020108
v 0.020203 -0.095881 0.020108
v 0.020203 -0.095881 0.020108
v -0.008866 0.375732 -0.026454
v -0.008866 0.375732 -0.026454
v -0.010931 0.396271 0.022616
v -0.010931 0.396271 0.022616
v 0.016492 0.396271 0.020792
v 0.016492 0.396271 0.020792
v -0.011061 0.371075 0.027221
v -0.011061 0.371075 0.027221
v -0.011061 0.371075 0.027221
v -0.010719 0.264402 0.034943
v -0.010719 0.264402 0.034943
v -0.005077 0.206966 0.038737
v -0.005077 0.206966 0.038737
v -0.005077 0.206966 0.038737
v -0.004104 0.094796 0.033783
v -0.004104 0.094796 0.033783
v -0.010441 -0.025351 0.024641
v 0.017741 -0.081608 -0.016917
v 0.017741 -0.081608 -0.016917
v 0.014242 -0.014222 -0.007719
v 0.009698 0.115006 0.010641
v 0.009698 0.115006 0.010641
v 0.009698 0.115006 0.010641
v 0.012207 0.206966 0.014220
v 0.012207 0.206966 0.014220
v 0.012207 0.206966 0.014220
v 0.015884 0.307526 0.003671
v 0.015884 0.307526 0.003671
v 0.015884 0.307526 0.003671
v -0.007663 0.362938 -0.011907
v -0.007663 0.362938 -0.011907
v -0.007663 0.362938 -0.011907
v -0.007663 0.362938 -0.011907
v -0.007663 0.362938 -0.011907
v -0.011910 0.261554 0.017036
v -0.011910 0.261554 0.017036
v -0.008482 0.206966 0.015596
v -0.008482 0.206966 0.015596
v -0.008482 0.206966 0.015596
v -0.008482 0.206966 0.015596
v -0.005575 0.115006 0.011657
v -0.005575 0.115006 0.011657
v -0.005575 0.115006 0.011657
v -0.012475 -0.014222 -0.005942
v 0.017231 0.371075 0.025339
v 0.017231 0.371075 0.025339
v 0.017231 0.371075 0.025339
v 0.017915 0.264402 0.033038
v 0.017915 0.264402 0.033038
v 0.013754 0.206966 0.037485
v 0.013754 0.206966 0.037485
v 0.013754 0.206966 0.037485
v 0.013754 0.206966 0.037485
v 0.011170 0.094796 0.032767
v 0.011170 0.094796 0.032767
v 0.016276 -0.025351 0.022864
v -0.000849 0.269907 0.033886
v -0.000635 0.225315 0.037110
v -0.000635 0.225315 0.037110
v 0.010128 0.272343 0.035246
v 0.010128 0.272343 0.035246
v 0.010204 0.225315 0.036389
v 0.010204 0.225315 0.036389
v 0.009591 0.352726 0.027179
v 0.009591 0.352726 0.027179
v -0.001248 0.352726 0.027900
v -0.001248 0.352726 0.027900
v 0.002046 0.379596 0.077429
v 0.012885 0.379596 0.076709
v 0.011281 0.251938 0.052581
v 0.000442 0.251938 0.053302
v 0.003303 0.264043 0.096326
v 0.003463 0.386611 0.098734
v 0.014280 0.386611 0.097679
v 0.006261 0.232981 0.140794
v 0.004954 0.406823 0.121149
v 0.015821 0.406823 0.120846
v 0.009619 0.287526 0.191293
v 0.006700 0.209304 0.147401
v 0.020458 0.287526 0.190572
v 0.017539 0.209304 0.146680
v 0.006797 0.483091 0.148852
v 0.017635 0.483091 0.148131
v -0.010874 0.312772 0.031441
v 0.016724 0.261554 0.015132
v -0.012595 0.307526 0.005565
v -0.012595 0.307526 0.005565
v -0.012595 0.307526 0.005565
v 0.017605 0.312772 0.029547
v -0.001030 0.307461 0.031172
v 0.009809 0.307461 0.030451
v 0.010543 0.353017 0.205178
v 0.010543 0.353017 0.205178
v 0.021381 0.353017 0.204457
v 0.021381 0.353017 0.204457
v -0.007554 0.332812 -0.011914
v -0.007554 0.332812 -0.011914
v -0.007554 0.332812 -0.011914
v 0.008573 0.332812 -0.012987
v 0.008573 0.332812 -0.012987
v 0.008573 0.332812 -0.012987
v 0.010171 0.236934 0.008778
v -0.006256 0.236934 0.009870
v -0.002091 0.320851 -0.051554
v -0.002091 0.320851 -0.051554
v -0.002091 0.320851 -0.051554
v -0.002091 0.320851 -0.051554
v -0.002091 0.320851 -0.051554
v -0.000578 0.281978 -0.028806
v -0.000578 0.281978 -0.028806
v -0.000578 0.281978 -0.028806
v 0.017099 0.232981 0.140074
v 0.014142 0.264043 0.095605
vt 0.267625 0.949172
vt 0.223216 0.929105
vt 0.267405 0.949101
vt 0.223216 0.929105
vt 0.237355 0.917843
vt 0.236617 0.917170
vt 0.237355 0.917843
vt 0.267625 0.949172
vt 0.271703 0.925803
vt 0.269304 0.521672
vt 0.238729 0.548172
vt 0.269490 0.538775
vt 0.267405 0.949101
vt 0.236617 0.917170
vt 0.271622 0.924904
vt 0.271622 0.924904
vt 0.271703 0.925803
vt 0.267807 0.565634
vt 0.269304 0.521672
vt 0.269490 0.538775
vt 0.269610 0.611131
vt 0.267582 0.551515
vt 0.267807 0.565634
vt 0.277174 0.695323
vt 0.269485 0.601399
vt 0.281674 0.779764
vt 0.277229 0.690975
vt 0.278337 0.827696
vt 0.280580 0.795917
vt 0.277957 0.833904
vt 0.267582 0.551515
vt 0.237555 0.534744
vt 0.269304 0.521672
vt 0.267582 0.551515
vt 0.245408 0.609383
vt 0.238999 0.561357
vt 0.269485 0.601399
vt 0.259115 0.706504
vt 0.277229 0.690975
vt 0.261833 0.779367
vt 0.259115 0.706504
vt 0.271622 0.924904
vt 0.252290 0.865870
vt 0.275363 0.870741
vt 0.238729 0.548172
vt 0.267807 0.565634
vt 0.269490 0.538775
vt 0.246204 0.618919
vt 0.267807 0.565634
vt 0.240239 0.575178
vt 0.259365 0.710620
vt 0.269610 0.611131
vt 0.262118 0.783409
vt 0.277174 0.695323
vt 0.259365 0.710620
vt 0.253016 0.868727
vt 0.271703 0.925803
vt 0.275317 0.873444
vt 0.237555 0.534744
vt 0.240239 0.575178
vt 0.238729 0.548172
vt 0.245408 0.609383
vt 0.238999 0.561357
vt 0.259365 0.710620
vt 0.246204 0.618919
vt 0.261833 0.779367
vt 0.259365 0.710620
vt 0.259115 0.706504
vt 0.262649 0.825160
vt 0.256993 0.804983
vt 0.261833 0.779367
vt 0.699875 0.257983
vt 0.745597 0.284172
vt 0.700727 0.258776
vt 0.281509 0.783438
vt 0.281674 0.779764
vt 0.272833 0.908101
vt 0.272848 0.908666
vt 0.275317 0.873444
vt 0.275653 0.868026
vt 0.703686 0.217884
vt 0.745597 0.284172
vt 0.775812 0.241980
vt 0.708784 0.147456
vt 0.722154 0.167711
vt 0.708077 0.145310
vt 0.705304 0.183397
vt 0.722154 0.167711
vt 0.742766 0.206712
vt 0.775770 0.215890
vt 0.798472 0.150535
vt 0.808660 0.203892
vt 0.760088 0.177811
vt 0.745333 0.283706
vt 0.765003 0.291031
vt 0.765003 0.291031
vt 0.804268 0.250177
vt 0.787176 0.310847
vt 0.817391 0.389862
vt 0.816657 0.388862
vt 0.787080 0.310733
vt 0.787176 0.310847
vt 0.832230 0.252111
vt 0.864039 0.258889
vt 0.862718 0.259691
vt 0.816657 0.388862
vt 0.862718 0.259691
vt 0.803347 0.130394
vt 0.846732 0.198006
vt 0.817687 0.251172
vt 0.817391 0.389862
vt 0.787080 0.310733
vt 0.845674 0.199573
vt 0.822963 0.205309
vt 0.862718 0.259691
vt 0.846732 0.198006
vt 0.845674 0.199573
vt 0.790427 0.217181
vt 0.757628 0.208086
vt 0.747176 0.240931
vt 0.765312 0.290657
vt 0.745333 0.283706
vt 0.789498 0.249223
vt 0.702889 0.216576
vt 0.699875 0.257983
vt 0.712361 0.187149
vt 0.278192 0.831789
vt 0.284188 0.837505
vt 0.263023 0.829329
vt 0.257314 0.807750
vt 0.250629 0.836020
vt 0.263023 0.829329
vt 0.278192 0.831789
vt 0.262649 0.825160
vt 0.278337 0.827696
vt 0.275363 0.870741
vt 0.278337 0.827696
vt 0.261833 0.779367
vt 0.281674 0.779764
vt 0.262118 0.783409
vt 0.278192 0.831789
vt 0.281509 0.783438
vt 0.237355 0.917843
vt 0.237037 0.889300
vt 0.236617 0.917170
vt 0.284188 0.837505
vt 0.280498 0.797853
vt 0.722694 0.169605
vt 0.708784 0.147456
vt 0.803347 0.130394
vt 0.802872 0.132745
vt 0.864039 0.258889
vt 0.275675 0.866941
vt 0.663882 0.239192
vt 0.665815 0.240712
vt 0.631058 0.229200
vt 0.671263 0.208437
vt 0.663882 0.239192
vt 0.631058 0.229200
vt 0.651697 0.194945
vt 0.677238 0.183539
vt 0.252290 0.865870
vt 0.237037 0.889300
vt 0.244297 0.858623
vt 0.253016 0.868727
vt 0.237749 0.890494
vt 0.237355 0.917843
vt 0.261833 0.779367
vt 0.257314 0.807750
vt 0.262118 0.783409
vt 0.250176 0.833783
vt 0.253016 0.868727
vt 0.244866 0.860396
vt 0.631058 0.229200
vt 0.651697 0.194945
vt 0.616883 0.185669
vt 0.684165 0.154676
vt 0.678896 0.186088
vt 0.685682 0.157750
vt 0.651697 0.194945
vt 0.673043 0.210529
vt 0.631058 0.229200
vt 0.685682 0.157750
vt 0.684165 0.154676
vt 0.651697 0.194945
vt 0.665815 0.240712
vt 0.631058 0.229200
vt 0.802872 0.132745
vt 0.798054 0.152654
vt 0.760153 0.179598
vt 0.722694 0.169605
vt 0.760153 0.179598
vt 0.760088 0.177811
vt 0.798472 0.150535
vt 0.798054 0.152654
vt 0.224252 0.929557
vt 0.224252 0.929557
vt 0.237355 0.917843
vt 0.224252 0.929557
vt 0.267625 0.949172
vt 0.237555 0.534744
vt 0.267405 0.949101
vt 0.223216 0.929105
vt 0.236617 0.917170
vt 0.267582 0.551515
vt 0.281509 0.783438
vt 0.267582 0.551515
vt 0.238999 0.561357
vt 0.237555 0.534744
vt 0.277229 0.690975
vt 0.281674 0.779764
vt 0.271622 0.924904
vt 0.236617 0.917170
vt 0.252290 0.865870
vt 0.238729 0.548172
vt 0.240239 0.575178
vt 0.267807 0.565634
vt 0.277174 0.695323
vt 0.281509 0.783438
vt 0.253016 0.868727
vt 0.237355 0.917843
vt 0.271703 0.925803
vt 0.259115 0.706504
vt 0.262118 0.783409
vt 0.700727 0.258776
vt 0.708077 0.145310
vt 0.765312 0.290657
vt 0.864039 0.258889
vt 0.262649 0.825160
vt 0.237749 0.890494
vt 0.281509 0.783438
vt 0.631058 0.229200
vt 0.252290 0.865870
vt 0.236617 0.917170
vt 0.237037 0.889300
vt 0.237749 0.890494
vt 0.256993 0.804983
vn -0.0257 0.9218 -0.3869
vn -0.0437 -0.7520 -0.6577
vn 0.9764 -0.0103 -0.2156
vn -0.0248 -0.9275 -0.3730
vn -0.9964 -0.0103 -0.0844
vn 0.0653 0.1791 0.9817
vn 0.0663 0.0513 0.9965
vn 0.0663 -0.0353 0.9972
vn 0.0662 -0.0792 0.9947
vn 0.0663 -0.0434 0.9969
vn 0.0662 0.0723 0.9952
vn -0.9985 0.0549 -0.0054
vn -0.9944 0.0578 0.0884
vn -0.9958 0.0421 0.0815
vn -0.9988 -0.0331 0.0362
vn -0.9978 0.0016 0.0660
vn 0.9890 0.0549 -0.1376
vn 0.9974 0.0578 -0.0440
vn 0.9978 0.0423 -0.0510
vn 0.9958 -0.0237 -0.0879
vn 0.9978 0.0016 -0.0667
vn -0.0662 0.0625 -0.9958
vn -0.0658 0.1316 -0.9891
vn -0.0657 0.1381 -0.9882
vn -0.0663 0.0406 -0.9970
vn -0.8453 -0.0390 -0.5329
vn -0.0316 0.8794 -0.4750
vn 0.9978 0.0000 -0.0664
vn 0.0567 -0.5205 0.8520
vn -0.9978 -0.0000 0.0664
vn -0.0210 0.9486 -0.3159
vn -0.0625 0.3375 -0.9393
vn -0.0183 0.7540 -0.6566
vn 0.0609 0.3981 0.9153
vn 0.0649 -0.2078 0.9760
vn 0.3892 0.1281 0.9122
vn 0.8596 -0.0994 -0.5012
vn 0.9978 0.0016 -0.0666
vn -0.9978 0.0016 0.0661
vn -0.9856 -0.0872 0.1450
vn 0.9948 -0.0772 -0.0662
vn -0.0664 0.0000 -0.9978
vn -0.1815 0.0236 0.9831
vn 0.0578 -0.4902 0.8697
vn -0.0194 0.9564 -0.2913
vn -0.9914 -0.0416 -0.1241
vn -0.9745 -0.0621 -0.2154
vn -0.9038 -0.1064 -0.4146
vn 0.9138 -0.0034 -0.4062
vn -0.0652 -0.1826 -0.9810
vn -0.9148 -0.1105 -0.3884
vn 0.8409 -0.1064 -0.5306
vn 0.9374 -0.0621 -0.3426
vn 0.9461 -0.1353 -0.2941
vn -0.0506 -0.6469 -0.7609
vn 0.9662 -0.0416 -0.2543
vn 0.0179 -0.9628 0.2697
vn -0.0379 -0.8204 -0.5705
vn -0.0639 -0.2693 -0.9609
vn 0.9864 -0.0957 -0.1336
vn -0.9954 -0.0957 -0.0018
vn -0.9980 -0.0330 0.0537
vn -0.9946 0.0573 0.0870
vn -0.9933 0.0443 0.1065
vn -0.9892 -0.0150 0.1455
vn -0.9935 0.0575 -0.0982
vn 0.9963 -0.0330 -0.0790
vn 0.9973 0.0573 -0.0455
vn 0.9987 0.0446 -0.0257
vn 0.9976 -0.0202 -0.0663
vn 0.9717 0.0575 -0.2289
vn -0.9184 -0.0994 -0.3829
vn -0.0303 0.9500 -0.3108
vn -0.0262 0.3418 -0.9394
vn -0.0650 0.7432 -0.6659
vn 0.7950 -0.0557 -0.6041
vn -0.9950 -0.0645 0.0764
vn 0.9953 -0.0815 -0.0532
vn 0.3194 0.0501 0.9463
vn -0.9768 -0.1353 -0.1662
vn -0.9595 -0.0034 -0.2816
vn 0.8554 -0.1105 -0.5061
s off
f 135/1/1 131/2/1 133/3/1
f 132/4/2 115/5/2 160/6/2
f 117/7/3 136/8/3 175/9/3
f 109/10/4 106/11/4 104/12/4
f 134/13/5 161/14/5 137/15/5
f 135/1/6 138/16/6 176/17/6
f 127/18/7 2/19/7 105/20/7
f 186/21/8 112/22/8 128/23/8
f 184/24/9 147/25/9 186/21/9
f 184/24/10 143/26/10 145/27/10
f 61/28/11 188/29/11 187/30/11
f 111/31/12 126/32/12 110/33/12
f 113/34/13 174/35/13 123/36/13
f 12/37/14 172/38/14 174/35/14
f 146/39/15 168/40/15 171/41/15
f 139/42/16 217/43/16 214/44/16
f 108/45/17 130/46/17 6/47/17
f 150/48/18 129/49/18 149/50/18
f 151/51/19 27/52/19 150/48/19
f 154/53/20 185/54/20 152/55/20
f 158/56/21 177/57/21 219/58/21
f 125/59/22 148/60/22 107/61/22
f 22/62/23 148/60/23 23/63/23
f 22/62/24 16/64/24 15/65/24
f 20/66/25 153/67/25 173/68/25
f 165/69/26 233/70/26 167/71/26
f 196/72/27 199/73/27 194/74/27
f 182/75/11 188/29/11 144/76/11
f 176/17/11 197/77/11 195/78/11
f 50/79/11 195/78/11 221/80/11
f 52/81/28 35/82/28 54/83/28
f 193/84/29 34/85/29 189/86/29
f 64/87/30 201/88/30 66/89/30
f 68/90/30 205/91/30 70/92/30
f 66/89/30 202/93/30 68/90/30
f 198/94/31 204/95/31 199/73/31
f 54/83/28 39/96/28 56/97/28
f 207/98/32 212/99/32 213/100/32
f 204/95/33 206/101/33 207/98/33
f 56/97/28 42/102/28 58/103/28
f 213/100/34 222/104/34 224/105/34
f 58/103/28 45/106/28 225/107/28
f 70/92/30 209/108/30 208/109/30
f 57/110/30 43/111/30 40/112/30
f 58/103/28 73/113/28 71/114/28
f 60/115/35 72/116/35 210/117/35
f 56/97/28 71/114/28 69/118/28
f 54/83/28 69/118/28 67/119/28
f 53/120/30 37/121/30 33/122/30
f 55/123/30 40/112/30 37/121/30
f 220/124/30 33/122/30 29/125/30
f 52/81/28 67/119/28 191/126/28
f 63/127/36 221/80/36 65/128/36
f 74/129/37 79/130/37 81/131/37
f 215/132/38 219/58/38 179/133/38
f 214/44/39 166/134/39 141/135/39
f 47/136/11 197/77/11 138/16/11
f 140/137/40 169/138/40 142/139/40
f 155/140/41 178/141/41 180/142/41
f 118/143/42 226/144/42 163/145/42
f 182/75/43 190/146/43 192/147/43
f 191/126/28 200/148/28 32/149/28
f 210/117/44 44/150/44 211/151/44
f 57/110/30 208/109/30 223/152/30
f 53/120/30 68/90/30 55/123/30
f 55/123/30 70/92/30 57/110/30
f 220/124/30 66/89/30 53/120/30
f 47/136/11 187/30/11 51/153/11
f 227/154/45 231/155/45 236/156/45
f 82/157/46 228/158/46 237/159/46
f 82/157/47 239/160/47 77/161/47
f 218/162/48 228/163/48 82/164/48
f 157/165/49 229/166/49 116/167/49
f 170/168/50 232/169/50 156/170/50
f 218/162/51 77/171/51 165/69/51
f 159/172/52 81/131/52 75/173/52
f 234/174/28 241/175/28 85/176/28
f 233/177/47 77/161/47 239/160/47
f 81/178/53 79/179/53 240/180/53
f 75/181/54 240/180/54 235/182/54
f 232/183/55 78/184/55 84/185/55
f 230/186/56 75/181/56 238/187/56
f 73/113/28 46/188/28 71/114/28
f 242/189/28 71/114/28 46/188/28
f 71/114/28 242/189/28 69/118/28
f 242/189/28 243/190/28 69/118/28
f 69/118/28 243/190/28 67/119/28
f 200/148/28 67/119/28 243/190/28
f 34/85/57 36/191/57 86/192/57
f 34/85/57 86/192/57 38/193/57
f 86/192/58 41/194/58 38/193/58
f 44/150/59 87/195/59 211/151/59
f 135/1/1 121/196/1 131/2/1
f 132/4/2 120/197/2 115/5/2
f 119/198/60 7/199/60 5/200/60
f 109/10/4 4/201/4 106/11/4
f 1/202/61 3/203/61 164/204/61
f 135/1/6 133/3/6 138/16/6
f 127/18/7 114/205/7 2/19/7
f 186/21/8 147/25/8 112/22/8
f 184/24/9 145/27/9 147/25/9
f 184/24/10 181/206/10 143/26/10
f 61/28/11 144/76/11 188/29/11
f 13/207/62 122/208/62 124/209/62
f 113/34/63 12/37/63 174/35/63
f 12/37/64 11/210/64 172/38/64
f 146/39/65 10/211/65 168/40/65
f 9/212/66 162/213/66 216/214/66
f 8/215/67 14/216/67 28/217/67
f 150/48/68 27/52/68 129/49/68
f 151/51/69 26/218/69 27/52/69
f 154/53/70 183/219/70 185/54/70
f 48/220/71 18/221/71 24/222/71
f 125/59/22 23/63/22 148/60/22
f 22/62/23 15/65/23 148/60/23
f 22/62/24 21/223/24 16/64/24
f 20/66/25 17/224/25 153/67/25
f 165/69/72 77/171/72 233/70/72
f 196/72/27 198/94/27 199/73/27
f 182/75/11 192/147/11 188/29/11
f 176/17/11 138/16/11 197/77/11
f 50/79/11 176/17/11 195/78/11
f 52/81/28 31/225/28 35/82/28
f 193/84/29 36/191/29 34/85/29
f 64/87/30 30/226/30 201/88/30
f 68/90/30 202/93/30 205/91/30
f 66/89/30 201/88/30 202/93/30
f 198/94/73 203/227/73 204/95/73
f 54/83/28 35/82/28 39/96/28
f 207/98/74 206/101/74 212/99/74
f 204/95/75 203/227/75 206/101/75
f 56/97/28 39/96/28 42/102/28
f 213/100/34 212/99/34 222/104/34
f 58/103/28 42/102/28 45/106/28
f 70/92/30 205/91/30 209/108/30
f 57/110/30 223/152/30 43/111/30
f 58/103/28 225/107/28 73/113/28
f 60/115/35 59/228/35 72/116/35
f 56/97/28 58/103/28 71/114/28
f 54/83/28 56/97/28 69/118/28
f 53/120/30 55/123/30 37/121/30
f 55/123/30 57/110/30 40/112/30
f 220/124/30 53/120/30 33/122/30
f 52/81/28 54/83/28 67/119/28
f 63/127/11 50/79/11 221/80/11
f 74/129/76 155/140/76 79/130/76
f 215/132/21 158/56/21 219/58/21
f 214/44/16 217/43/16 166/134/16
f 47/136/11 51/153/11 197/77/11
f 140/137/77 62/229/77 169/138/77
f 155/140/78 74/129/78 178/141/78
f 118/143/42 76/230/42 226/144/42
f 25/231/79 63/127/79 65/128/79
f 191/126/28 67/119/28 200/148/28
f 210/117/44 72/116/44 44/150/44
f 57/110/30 70/92/30 208/109/30
f 53/120/30 66/89/30 68/90/30
f 55/123/30 68/90/30 70/92/30
f 220/124/30 64/87/30 66/89/30
f 47/136/11 61/28/11 187/30/11
f 82/157/80 83/232/80 239/160/80
f 49/233/81 19/234/81 80/235/81
f 159/172/52 75/173/52 230/236/52
f 170/168/50 78/237/50 232/169/50
f 218/162/48 82/164/48 77/171/48
f 159/172/82 74/129/82 81/131/82
f 75/181/53 81/178/53 240/180/53
f 86/192/58 87/195/58 41/194/58
f 44/150/59 41/194/59 87/195/59
l 94 89
l 95 91
l 91 89
l 90 88
l 88 92
l 90 93
l 92 94
l 93 95
l 96 97
l 98 99
l 99 100
l 101 97
l 102 96
l 101 103
l 103 98
l 100 102
