# Blender v2.93.1 OBJ File: ''
# www.blender.org
mtllib tree.mtl
o Cylinder
v 0.000000 -0.067138 -0.908219
v 0.000000 0.000000 -1.000000
v 0.013574 -0.065848 -0.908219
v 0.026627 -0.062028 -0.908219
v 0.038657 -0.055823 -0.908219
v 0.049201 -0.047474 -0.908219
v 0.057854 -0.037300 -0.908219
v 0.064284 -0.025693 -0.908219
v 0.068243 -0.013098 -0.908219
v 0.069580 0.000000 -0.908219
v 0.068243 0.013098 -0.908219
v 0.064284 0.025693 -0.908219
v 0.057854 0.037300 -0.908219
v 0.049201 0.047474 -0.908219
v 0.038657 0.055823 -0.908219
v 0.026627 0.062028 -0.908219
v 0.013574 0.065848 -0.908219
v 0.000000 0.067138 -0.908219
v -0.013574 0.065848 -0.908219
v -0.026627 0.062028 -0.908219
v -0.038657 0.055823 -0.908219
v -0.049201 0.047474 -0.908219
v -0.057854 0.037300 -0.908219
v -0.064284 0.025693 -0.908219
v -0.068243 0.013098 -0.908219
v -0.069580 0.000000 -0.908219
v -0.068243 -0.013098 -0.908219
v -0.064284 -0.025693 -0.908219
v -0.057854 -0.037300 -0.908219
v -0.049201 -0.047474 -0.908219
v -0.038657 -0.055823 -0.908219
v -0.026627 -0.062028 -0.908219
v -0.013574 -0.065848 -0.908219
v -0.008132 -0.020158 -0.000000
v -0.004146 -0.021400 -0.000000
v 0.011805 -0.018142 -0.000000
v -0.004146 -0.021400 -0.892871
v 0.000000 -0.021819 -0.000000
v -0.008132 -0.020158 -0.892871
v -0.011805 -0.018142 -0.892871
v -0.011805 -0.018142 -0.000000
v -0.015025 -0.015429 -0.892871
v -0.015025 -0.015429 -0.000000
v -0.017668 -0.012122 -0.892871
v -0.017668 -0.012122 -0.000000
v -0.019632 -0.008350 -0.892871
v -0.019632 -0.008350 -0.000000
v -0.020841 -0.004257 -0.892871
v -0.020841 -0.004257 -0.000000
v -0.021249 0.000000 -0.892871
v -0.021249 0.000000 0.000000
v -0.020841 0.004257 -0.892871
v -0.020841 0.004257 0.000000
v -0.019632 0.008350 -0.892871
v -0.019632 0.008350 0.000000
v -0.017668 0.012122 -0.892871
v -0.017668 0.012122 0.000000
v -0.015025 0.015429 -0.892871
v -0.015025 0.015429 0.000000
v -0.011805 0.018142 -0.892871
v -0.011805 0.018142 0.000000
v -0.008132 0.020158 -0.892871
v -0.008132 0.020158 0.000000
v -0.004146 0.021400 -0.892871
v -0.004146 0.021400 0.000000
v 0.000000 0.021819 -0.892871
v 0.000000 0.021819 0.000000
v 0.004146 0.021400 -0.892871
v 0.004146 0.021400 0.000000
v 0.008132 0.020158 -0.892871
v 0.008132 0.020158 0.000000
v 0.011805 0.018142 -0.892871
v 0.011805 0.018142 0.000000
v 0.015025 0.015429 -0.892871
v 0.015025 0.015429 0.000000
v 0.017668 0.012122 -0.892871
v 0.017668 0.012122 0.000000
v 0.019632 0.008350 -0.892871
v 0.019632 0.008350 0.000000
v 0.020841 0.004257 -0.892871
v 0.020841 0.004257 0.000000
v 0.021249 0.000000 -0.892871
v 0.021249 0.000000 0.000000
v 0.020841 -0.004257 -0.892871
v 0.020841 -0.004257 -0.000000
v 0.019632 -0.008350 -0.892871
v 0.019632 -0.008350 -0.000000
v 0.017668 -0.012122 -0.892871
v 0.017668 -0.012122 -0.000000
v 0.015025 -0.015429 -0.892871
v 0.015025 -0.015429 -0.000000
v 0.011805 -0.018142 -0.892871
v 0.008132 -0.020158 -0.892871
v 0.008132 -0.020158 -0.000000
v 0.004146 -0.021400 -0.892871
v 0.004146 -0.021400 -0.000000
v 0.000000 -0.021819 -0.892871
vn 0.0765 -0.8047 -0.5887
vn 0.2268 -0.7751 -0.5897
vn 0.3696 -0.7166 -0.5915
vn 0.4994 -0.6307 -0.5940
vn 0.6113 -0.5199 -0.5966
vn 0.7004 -0.3880 -0.5991
vn 0.7624 -0.2396 -0.6011
vn 0.7943 -0.0811 -0.6021
vn 0.7943 0.0811 -0.6021
vn 0.7624 0.2396 -0.6011
vn 0.7004 0.3880 -0.5991
vn 0.6113 0.5199 -0.5966
vn 0.4994 0.6307 -0.5940
vn 0.3696 0.7166 -0.5915
vn 0.2268 0.7751 -0.5897
vn 0.0765 0.8047 -0.5887
vn -0.0765 0.8047 -0.5887
vn -0.2268 0.7751 -0.5897
vn -0.3696 0.7166 -0.5915
vn -0.4994 0.6307 -0.5940
vn -0.6113 0.5199 -0.5966
vn -0.7004 0.3880 -0.5991
vn -0.7624 0.2396 -0.6011
vn -0.7943 0.0811 -0.6021
vn -0.7943 -0.0811 -0.6021
vn -0.7624 -0.2396 -0.6011
vn -0.7004 -0.3880 -0.5991
vn -0.6113 -0.5199 -0.5966
vn -0.4994 -0.6307 -0.5940
vn -0.3696 -0.7166 -0.5915
vn -0.2268 -0.7751 -0.5897
vn -0.0765 -0.8047 -0.5887
vn 0.0000 -0.0000 1.0000
vn -0.1005 -0.9949 -0.0000
vn -0.2975 -0.9547 -0.0000
vn -0.4812 -0.8766 -0.0000
vn -0.6443 -0.7647 -0.0000
vn -0.7812 -0.6243 -0.0000
vn -0.8870 -0.4618 -0.0000
vn -0.9590 -0.2833 -0.0000
vn -0.9954 -0.0954 -0.0000
vn -0.9954 0.0954 0.0000
vn -0.9590 0.2833 0.0000
vn -0.8870 0.4618 0.0000
vn -0.7812 0.6243 0.0000
vn -0.6443 0.7647 0.0000
vn -0.4812 0.8766 0.0000
vn -0.2975 0.9547 0.0000
vn -0.1005 0.9949 0.0000
vn 0.1005 0.9949 0.0000
vn 0.2975 0.9547 0.0000
vn 0.4812 0.8766 0.0000
vn 0.6443 0.7647 0.0000
vn 0.7812 0.6243 0.0000
vn 0.8870 0.4618 0.0000
vn 0.9590 0.2833 0.0000
vn 0.9954 0.0954 0.0000
vn 0.9954 -0.0954 -0.0000
vn 0.9590 -0.2833 -0.0000
vn 0.8870 -0.4618 -0.0000
vn 0.7812 -0.6243 -0.0000
vn 0.6443 -0.7647 -0.0000
vn 0.4812 -0.8766 -0.0000
vn 0.2975 -0.9547 -0.0000
vn 0.1005 -0.9949 -0.0000
vn -0.0321 -0.3206 0.9467
vn -0.0306 -0.3205 0.9468
vn -0.0324 -0.3206 0.9467
vn -0.0946 -0.3069 0.9470
vn -0.0903 -0.3074 0.9473
vn -0.0955 -0.3067 0.9470
vn -0.1522 -0.2801 0.9478
vn -0.1461 -0.2822 0.9482
vn -0.1535 -0.2796 0.9478
vn -0.2021 -0.2423 0.9489
vn -0.1956 -0.2462 0.9493
vn -0.2034 -0.2415 0.9488
vn -0.2428 -0.1960 0.9501
vn -0.2372 -0.2010 0.9504
vn -0.2439 -0.1949 0.9500
vn -0.2731 -0.1436 0.9512
vn -0.2694 -0.1487 0.9515
vn -0.2739 -0.1426 0.9511
vn -0.2932 -0.0875 0.9520
vn -0.2914 -0.0913 0.9522
vn -0.2935 -0.0867 0.9520
vn -0.3029 -0.0293 0.9526
vn -0.3025 -0.0308 0.9526
vn -0.3030 -0.0290 0.9525
vn -0.3025 0.0308 0.9526
vn -0.3029 0.0293 0.9526
vn -0.3030 0.0290 0.9525
vn -0.2914 0.0913 0.9522
vn -0.2932 0.0875 0.9520
vn -0.2935 0.0867 0.9520
vn -0.2694 0.1487 0.9515
vn -0.2732 0.1436 0.9512
vn -0.2739 0.1426 0.9511
vn -0.2372 0.2010 0.9504
vn -0.2428 0.1960 0.9501
vn -0.2439 0.1949 0.9500
vn -0.1957 0.2462 0.9493
vn -0.2021 0.2423 0.9489
vn -0.2035 0.2415 0.9488
vn -0.1461 0.2822 0.9482
vn -0.1522 0.2801 0.9478
vn -0.1535 0.2796 0.9478
vn -0.0903 0.3074 0.9473
vn -0.0947 0.3069 0.9470
vn -0.0956 0.3067 0.9470
vn -0.0306 0.3205 0.9468
vn -0.0321 0.3206 0.9467
vn -0.0324 0.3206 0.9467
vn 0.0321 0.3206 0.9467
vn 0.0306 0.3205 0.9468
vn 0.0324 0.3206 0.9467
vn 0.0946 0.3069 0.9470
vn 0.0903 0.3074 0.9473
vn 0.0956 0.3067 0.9470
vn 0.1522 0.2801 0.9478
vn 0.1461 0.2822 0.9482
vn 0.1535 0.2796 0.9478
vn 0.2021 0.2423 0.9489
vn 0.1957 0.2462 0.9493
vn 0.2035 0.2415 0.9488
vn 0.2428 0.1960 0.9501
vn 0.2372 0.2010 0.9504
vn 0.2439 0.1949 0.9500
vn 0.2731 0.1436 0.9512
vn 0.2694 0.1487 0.9515
vn 0.2739 0.1426 0.9511
vn 0.2932 0.0875 0.9520
vn 0.2914 0.0913 0.9522
vn 0.2935 0.0867 0.9520
vn 0.3029 0.0293 0.9526
vn 0.3025 0.0308 0.9526
vn 0.3030 0.0290 0.9525
vn 0.3025 -0.0308 0.9526
vn 0.3029 -0.0293 0.9526
vn 0.3030 -0.0290 0.9525
vn 0.2914 -0.0913 0.9522
vn 0.2932 -0.0875 0.9520
vn 0.2935 -0.0867 0.9520
vn 0.2694 -0.1487 0.9515
vn 0.2732 -0.1436 0.9512
vn 0.2739 -0.1426 0.9511
vn 0.2372 -0.2010 0.9504
vn 0.2428 -0.1960 0.9501
vn 0.2439 -0.1949 0.9500
vn 0.1956 -0.2462 0.9493
vn 0.2021 -0.2423 0.9489
vn 0.2034 -0.2415 0.9488
vn 0.1461 -0.2822 0.9482
vn 0.1522 -0.2801 0.9478
vn 0.1535 -0.2796 0.9478
vn 0.0903 -0.3074 0.9473
vn 0.0946 -0.3069 0.9470
vn 0.0955 -0.3067 0.9470
vn 0.0306 -0.3205 0.9468
vn 0.0321 -0.3206 0.9467
vn 0.0324 -0.3206 0.9467
vn -0.0305 -0.3205 0.9468
vn -0.0900 -0.3075 0.9473
vn -0.1457 -0.2824 0.9482
vn -0.1952 -0.2465 0.9493
vn -0.2368 -0.2014 0.9505
vn -0.2691 -0.1491 0.9515
vn -0.2913 -0.0915 0.9523
vn -0.3025 -0.0309 0.9526
vn -0.3025 0.0309 0.9526
vn -0.2912 0.0915 0.9523
vn -0.2691 0.1491 0.9515
vn -0.2368 0.2014 0.9505
vn -0.1952 0.2465 0.9493
vn -0.1457 0.2824 0.9482
vn -0.0900 0.3075 0.9473
vn -0.0305 0.3205 0.9468
vn 0.0305 0.3205 0.9468
vn 0.0900 0.3075 0.9473
vn 0.1457 0.2824 0.9482
vn 0.1952 0.2465 0.9493
vn 0.2368 0.2014 0.9505
vn 0.2691 0.1491 0.9515
vn 0.2912 0.0915 0.9523
vn 0.3025 0.0309 0.9526
vn 0.3025 -0.0309 0.9526
vn 0.2913 -0.0915 0.9523
vn 0.2691 -0.1491 0.9515
vn 0.2368 -0.2014 0.9505
vn 0.1952 -0.2465 0.9493
vn 0.1457 -0.2824 0.9482
vn 0.0900 -0.3075 0.9473
vn 0.0305 -0.3205 0.9468
usemtl Default_OBJ
s 1
f 1//1 2//1 3//1
f 3//2 2//2 4//2
f 4//3 2//3 5//3
f 5//4 2//4 6//4
f 6//5 2//5 7//5
f 7//6 2//6 8//6
f 8//7 2//7 9//7
f 9//8 2//8 10//8
f 10//9 2//9 11//9
f 11//10 2//10 12//10
f 12//11 2//11 13//11
f 13//12 2//12 14//12
f 14//13 2//13 15//13
f 15//14 2//14 16//14
f 16//15 2//15 17//15
f 17//16 2//16 18//16
f 18//17 2//17 19//17
f 19//18 2//18 20//18
f 20//19 2//19 21//19
f 21//20 2//20 22//20
f 22//21 2//21 23//21
f 23//22 2//22 24//22
f 24//23 2//23 25//23
f 25//24 2//24 26//24
f 26//25 2//25 27//25
f 27//26 2//26 28//26
f 28//27 2//27 29//27
f 29//28 2//28 30//28
f 30//29 2//29 31//29
f 31//30 2//30 32//30
f 32//31 2//31 33//31
f 33//32 2//32 1//32
f 34//33 35//33 36//33
f 37//34 38//34 35//34
f 39//35 35//35 34//35
f 40//36 34//36 41//36
f 42//37 41//37 43//37
f 44//38 43//38 45//38
f 46//39 45//39 47//39
f 48//40 47//40 49//40
f 50//41 49//41 51//41
f 52//42 51//42 53//42
f 54//43 53//43 55//43
f 56//44 55//44 57//44
f 58//45 57//45 59//45
f 60//46 59//46 61//46
f 62//47 61//47 63//47
f 64//48 63//48 65//48
f 66//49 65//49 67//49
f 68//50 67//50 69//50
f 70//51 69//51 71//51
f 72//52 71//52 73//52
f 74//53 73//53 75//53
f 76//54 75//54 77//54
f 78//55 77//55 79//55
f 80//56 79//56 81//56
f 82//57 81//57 83//57
f 84//58 83//58 85//58
f 86//59 85//59 87//59
f 88//60 87//60 89//60
f 90//61 89//61 91//61
f 92//62 91//62 36//62
f 93//63 36//63 94//63
f 95//64 94//64 96//64
f 97//65 96//65 38//65
f 37//66 1//67 97//68
f 39//69 33//70 37//71
f 40//72 32//73 39//74
f 42//75 31//76 40//77
f 44//78 30//79 42//80
f 46//81 29//82 44//83
f 48//84 28//85 46//86
f 50//87 27//88 48//89
f 25//90 50//91 52//92
f 24//93 52//94 54//95
f 23//96 54//97 56//98
f 22//99 56//100 58//101
f 21//102 58//103 60//104
f 20//105 60//106 62//107
f 19//108 62//109 64//110
f 18//111 64//112 66//113
f 68//114 18//115 66//116
f 70//117 17//118 68//119
f 72//120 16//121 70//122
f 74//123 15//124 72//125
f 76//126 14//127 74//128
f 78//129 13//130 76//131
f 80//132 12//133 78//134
f 82//135 11//136 80//137
f 9//138 82//139 84//140
f 8//141 84//142 86//143
f 7//144 86//145 88//146
f 6//147 88//148 90//149
f 5//150 90//151 92//152
f 4//153 92//154 93//155
f 3//156 93//157 95//158
f 1//159 95//160 97//161
f 35//33 38//33 96//33
f 96//33 94//33 35//33
f 94//33 36//33 35//33
f 36//33 91//33 43//33
f 91//33 89//33 45//33
f 89//33 87//33 45//33
f 87//33 85//33 47//33
f 45//33 87//33 47//33
f 85//33 83//33 51//33
f 83//33 81//33 53//33
f 81//33 79//33 53//33
f 79//33 77//33 55//33
f 53//33 79//33 55//33
f 77//33 75//33 59//33
f 75//33 73//33 61//33
f 73//33 71//33 61//33
f 71//33 69//33 61//33
f 69//33 67//33 65//33
f 65//33 63//33 69//33
f 63//33 61//33 69//33
f 61//33 59//33 75//33
f 59//33 57//33 77//33
f 57//33 55//33 77//33
f 53//33 51//33 83//33
f 51//33 49//33 85//33
f 49//33 47//33 85//33
f 45//33 43//33 91//33
f 43//33 41//33 36//33
f 41//33 34//33 36//33
f 37//34 97//34 38//34
f 39//35 37//35 35//35
f 40//36 39//36 34//36
f 42//37 40//37 41//37
f 44//38 42//38 43//38
f 46//39 44//39 45//39
f 48//40 46//40 47//40
f 50//41 48//41 49//41
f 52//42 50//42 51//42
f 54//43 52//43 53//43
f 56//44 54//44 55//44
f 58//45 56//45 57//45
f 60//46 58//46 59//46
f 62//47 60//47 61//47
f 64//48 62//48 63//48
f 66//49 64//49 65//49
f 68//50 66//50 67//50
f 70//51 68//51 69//51
f 72//52 70//52 71//52
f 74//53 72//53 73//53
f 76//54 74//54 75//54
f 78//55 76//55 77//55
f 80//56 78//56 79//56
f 82//57 80//57 81//57
f 84//58 82//58 83//58
f 86//59 84//59 85//59
f 88//60 86//60 87//60
f 90//61 88//61 89//61
f 92//62 90//62 91//62
f 93//63 92//63 36//63
f 95//64 93//64 94//64
f 97//65 95//65 96//65
f 37//66 33//162 1//67
f 39//69 32//163 33//70
f 40//72 31//164 32//73
f 42//75 30//165 31//76
f 44//78 29//166 30//79
f 46//81 28//167 29//82
f 48//84 27//168 28//85
f 50//87 26//169 27//88
f 25//90 26//170 50//91
f 24//93 25//171 52//94
f 23//96 24//172 54//97
f 22//99 23//173 56//100
f 21//102 22//174 58//103
f 20//105 21//175 60//106
f 19//108 20//176 62//109
f 18//111 19//177 64//112
f 68//114 17//178 18//115
f 70//117 16//179 17//118
f 72//120 15//180 16//121
f 74//123 14//181 15//124
f 76//126 13//182 14//127
f 78//129 12//183 13//130
f 80//132 11//184 12//133
f 82//135 10//185 11//136
f 9//138 10//186 82//139
f 8//141 9//187 84//142
f 7//144 8//188 86//145
f 6//147 7//189 88//148
f 5//150 6//190 90//151
f 4//153 5//191 92//154
f 3//156 4//192 93//157
f 1//159 3//193 95//160
